<svg width="512" height="512" viewBox="0 0 512 512" fill="none" xmlns="http://www.w3.org/2000/svg">
  <!-- Gradient background -->
  <defs>
    <linearGradient id="grad" x1="0%" y1="0%" x2="100%" y2="100%">
      <stop offset="0%" style="stop-color:#667EEA;stop-opacity:1" />
      <stop offset="100%" style="stop-color:#764BA2;stop-opacity:1" />
    </linearGradient>
  </defs>
  
  <!-- Rounded square background -->
  <rect width="512" height="512" rx="115" fill="url(#grad)"/>
  
  <!-- Clipboard icon (left side) -->
  <path d="M180 140h-40c-11 0-20 9-20 20v220c0 11 9 20 20 20h80c11 0 20-9 20-20v-40" 
        stroke="white" stroke-width="16" fill="none" stroke-linecap="round"/>
  <rect x="160" y="120" width="60" height="20" rx="5" fill="white" opacity="0.7"/>
  
  <!-- Arrow -->
  <path d="M240 256h72M312 256l-20-20M312 256l-20 20" 
        stroke="white" stroke-width="20" stroke-linecap="round" stroke-linejoin="round"/>
  
  <!-- Markdown "M" symbol (right side) -->
  <path d="M330 200v160h30v-120l35 40 35-40v120h30v-160h-30l-35 40-35-40z" 
        fill="white"/>
</svg>
